<mxfile host="app.diagrams.net" agent="Mozilla/5.0 (Windows NT 10.0; Win64; x64) AppleWebKit/537.36 (KHTML, like Gecko) Chrome/135.0.0.0 Safari/537.36" version="26.2.14">
  <diagram name="Page-1" id="HuQXpRJW-JyfZM2x-kBP">
    <mxGraphModel dx="492" dy="527" grid="1" gridSize="10" guides="1" tooltips="1" connect="1" arrows="1" fold="1" page="1" pageScale="1" pageWidth="850" pageHeight="1100" math="0" shadow="0">
      <root>
        <mxCell id="0" />
        <mxCell id="1" parent="0" />
        <mxCell id="4rSRk4p9Y4KTcWov7Et0-1" value="Administrative Management" style="swimlane;whiteSpace=wrap;html=1;fillColor=light-dark(#8c8c8c, #ededed);" vertex="1" parent="1">
          <mxGeometry x="280" y="80" width="400" height="200" as="geometry" />
        </mxCell>
        <mxCell id="4rSRk4p9Y4KTcWov7Et0-2" value="F" style="shape=parallelogram;perimeter=parallelogramPerimeter;whiteSpace=wrap;html=1;fixedSize=1;" vertex="1" parent="4rSRk4p9Y4KTcWov7Et0-1">
          <mxGeometry x="30" y="60" width="145" height="70" as="geometry" />
        </mxCell>
        <mxCell id="4rSRk4p9Y4KTcWov7Et0-3" value="F" style="shape=parallelogram;perimeter=parallelogramPerimeter;whiteSpace=wrap;html=1;fixedSize=1;" vertex="1" parent="4rSRk4p9Y4KTcWov7Et0-1">
          <mxGeometry x="220" y="60" width="145" height="70" as="geometry" />
        </mxCell>
        <mxCell id="4rSRk4p9Y4KTcWov7Et0-4" value="Information Protection" style="text;html=1;align=center;verticalAlign=middle;resizable=0;points=[];autosize=1;strokeColor=none;fillColor=none;" vertex="1" parent="4rSRk4p9Y4KTcWov7Et0-1">
          <mxGeometry x="32.5" y="148" width="140" height="30" as="geometry" />
        </mxCell>
        <mxCell id="4rSRk4p9Y4KTcWov7Et0-5" value="Information Systems Oversight" style="text;html=1;align=center;verticalAlign=middle;resizable=0;points=[];autosize=1;strokeColor=none;fillColor=none;" vertex="1" parent="4rSRk4p9Y4KTcWov7Et0-1">
          <mxGeometry x="197.5" y="148" width="190" height="30" as="geometry" />
        </mxCell>
        <mxCell id="4rSRk4p9Y4KTcWov7Et0-6" value="IT MANAGEMENT" style="swimlane;whiteSpace=wrap;html=1;fillColor=#999999;" vertex="1" parent="1">
          <mxGeometry x="90" y="320" width="780" height="200" as="geometry" />
        </mxCell>
        <mxCell id="4rSRk4p9Y4KTcWov7Et0-7" value="F" style="shape=parallelogram;perimeter=parallelogramPerimeter;whiteSpace=wrap;html=1;fixedSize=1;" vertex="1" parent="4rSRk4p9Y4KTcWov7Et0-6">
          <mxGeometry x="30" y="60" width="145" height="70" as="geometry" />
        </mxCell>
        <mxCell id="4rSRk4p9Y4KTcWov7Et0-8" value="F" style="shape=parallelogram;perimeter=parallelogramPerimeter;whiteSpace=wrap;html=1;fixedSize=1;" vertex="1" parent="4rSRk4p9Y4KTcWov7Et0-6">
          <mxGeometry x="220" y="60" width="145" height="70" as="geometry" />
        </mxCell>
        <mxCell id="4rSRk4p9Y4KTcWov7Et0-9" value="Website Development" style="text;html=1;align=center;verticalAlign=middle;resizable=0;points=[];autosize=1;strokeColor=none;fillColor=none;" vertex="1" parent="4rSRk4p9Y4KTcWov7Et0-6">
          <mxGeometry x="32.5" y="148" width="140" height="30" as="geometry" />
        </mxCell>
        <mxCell id="4rSRk4p9Y4KTcWov7Et0-10" value="Website Maintance" style="text;html=1;align=center;verticalAlign=middle;resizable=0;points=[];autosize=1;strokeColor=none;fillColor=none;" vertex="1" parent="4rSRk4p9Y4KTcWov7Et0-6">
          <mxGeometry x="227.5" y="148" width="130" height="30" as="geometry" />
        </mxCell>
        <mxCell id="4rSRk4p9Y4KTcWov7Et0-11" value="Infrastructure Administration" style="text;html=1;align=center;verticalAlign=middle;resizable=0;points=[];autosize=1;strokeColor=none;fillColor=none;" vertex="1" parent="4rSRk4p9Y4KTcWov7Et0-6">
          <mxGeometry x="410" y="148" width="170" height="30" as="geometry" />
        </mxCell>
        <mxCell id="4rSRk4p9Y4KTcWov7Et0-12" value="F" style="shape=parallelogram;perimeter=parallelogramPerimeter;whiteSpace=wrap;html=1;fixedSize=1;" vertex="1" parent="4rSRk4p9Y4KTcWov7Et0-6">
          <mxGeometry x="422.5" y="60" width="145" height="70" as="geometry" />
        </mxCell>
        <mxCell id="4rSRk4p9Y4KTcWov7Et0-13" value="Technical Assistance" style="text;html=1;align=center;verticalAlign=middle;resizable=0;points=[];autosize=1;strokeColor=none;fillColor=none;" vertex="1" parent="4rSRk4p9Y4KTcWov7Et0-6">
          <mxGeometry x="610" y="148" width="130" height="30" as="geometry" />
        </mxCell>
        <mxCell id="4rSRk4p9Y4KTcWov7Et0-14" value="F" style="shape=parallelogram;perimeter=parallelogramPerimeter;whiteSpace=wrap;html=1;fixedSize=1;" vertex="1" parent="4rSRk4p9Y4KTcWov7Et0-6">
          <mxGeometry x="602.5" y="60" width="145" height="70" as="geometry" />
        </mxCell>
      </root>
    </mxGraphModel>
  </diagram>
</mxfile>
